<svg width="81" height="82" viewBox="0 0 81 82" fill="none" xmlns="http://www.w3.org/2000/svg">
<rect x="13.4746" y="24.1618" width="27.4909" height="7.85455" fill="url(#paint0_linear_1021_342218)"/>
<path d="M33.1114 11.6194C33.1114 9.05712 31.0343 6.97998 28.472 6.97998H25.969C23.4068 6.97998 21.3296 9.05712 21.3296 11.6194V12.7374C21.3296 13.9988 20.5471 15.128 19.366 15.5709C18.1848 16.0138 17.4023 17.143 17.4023 18.4044V24.1618H37.0387V18.4044C37.0387 17.143 36.2562 16.0138 35.0751 15.5709C33.8939 15.128 33.1114 13.9988 33.1114 12.7374V11.6194Z" fill="#FFDEAE"/>
<path d="M39.002 32.0164H15.4384L14.1773 34.034C11.7934 37.8484 10.5293 42.2559 10.5293 46.754V72.2709H43.9111V46.754C43.9111 42.2559 42.647 37.8484 40.2631 34.034L39.002 32.0164Z" fill="#0044AD"/>
<rect x="21.3301" y="46.2527" width="11.7818" height="2.94545" fill="white"/>
<rect x="21.3301" y="54.1072" width="11.7818" height="2.94546" fill="white"/>
<rect x="21.3301" y="61.9618" width="11.7818" height="2.94545" fill="white"/>
<path d="M35.4883 46.3006C34.0794 44.8241 31.5898 45.8213 31.5898 47.8622V53.6204C31.5898 63.9615 39.9729 72.3445 50.3139 72.3445H51.0781C57.6388 72.3445 63.6467 68.6697 66.635 62.8291C69.3052 57.6099 69.1804 51.3996 66.3027 46.2919L66.0198 45.7899H52.8135C50.9556 48.0529 48.1817 49.3646 45.2538 49.3646H43.864C41.2328 49.3646 38.6663 48.5486 36.5182 47.0291L35.4883 46.3006Z" fill="url(#paint1_linear_1021_342218)"/>
<path d="M48.9531 54.9819H53.0384C55.8588 54.9819 58.1451 57.2683 58.1451 60.0886C58.1451 62.9089 55.8588 65.1952 53.0384 65.1952H48.9531V54.9819Z" fill="#0044AD"/>
<path fill-rule="evenodd" clip-rule="evenodd" d="M49.1188 65.1952C51.9391 65.1952 54.2254 62.9089 54.2254 60.0886C54.2254 57.2683 51.9391 54.9819 49.1188 54.9819C46.947 54.9819 45.0919 56.3376 44.3535 58.2489L48.9527 60.0886L44.3535 61.9282C45.0919 63.8395 46.947 65.1952 49.1188 65.1952Z" fill="#0044AD"/>
<path d="M62.2305 37.1086H74.5229C75.0668 37.1086 75.5078 37.5496 75.5078 38.0935C75.5078 42.6262 71.8333 46.3006 67.3006 46.3006H62.2305V37.1086Z" fill="url(#paint2_linear_1021_342218)"/>
<ellipse cx="58.4001" cy="41.9599" rx="11.49" ry="11.49" fill="#0044AD"/>
<ellipse cx="62.2979" cy="39.7297" rx="2.1104" ry="2.1104" fill="white"/>
<defs>
<linearGradient id="paint0_linear_1021_342218" x1="9.54733" y1="25.0271" x2="18.9818" y2="43.3412" gradientUnits="userSpaceOnUse">
<stop stop-color="#F74820"/>
<stop offset="0.65625" stop-color="#FF833E"/>
</linearGradient>
<linearGradient id="paint1_linear_1021_342218" x1="30.4141" y1="49.1435" x2="43.4811" y2="51.4311" gradientUnits="userSpaceOnUse">
<stop stop-color="#F74820"/>
<stop offset="0.65625" stop-color="#FF833E"/>
</linearGradient>
<linearGradient id="paint2_linear_1021_342218" x1="75.3305" y1="36.95" x2="67.9129" y2="42.0722" gradientUnits="userSpaceOnUse">
<stop stop-color="#F74820"/>
<stop offset="0.65625" stop-color="#FF833E"/>
</linearGradient>
</defs>
</svg>
