<svg width="244" height="55" viewBox="0 0 244 55" fill="none" xmlns="http://www.w3.org/2000/svg">
<path d="M243.572 23.8544H232.12C231.037 22.2673 230.435 20.9556 230.258 20.3619H240.5V17.6765H235.092C236.275 15.5421 237.571 12.4454 237.605 12.4726H234.001C233.469 13.7221 232.517 16.0272 231.646 17.6765H226.966C228.046 14.5642 228.485 12.003 228.581 10.9979H225.536C225.34 13.1633 224.754 15.4412 223.852 17.6765H221.778C220.772 15.0803 219.777 12.5036 219.766 12.4726H216.327C216.335 12.4997 217.445 15.352 218.347 17.6765H212.835V20.3619H222.614C221.986 21.561 221.273 22.7329 220.483 23.8544H209.767V26.8424H218.066C215.657 29.4581 212.816 31.542 209.767 32.6558V35.473C212.577 34.7357 214.982 33.525 217.04 32.027V33.1252H223.231C222.599 37.2037 216.933 40.5644 214.311 41.2009V44.0025C219.369 42.5008 225.228 39.637 226.635 33.1252H232.529C232.293 38.5269 232.205 40.2113 231.735 40.5721C231.565 40.7196 231.33 40.7895 231.029 40.7895C230.154 40.8244 228.4 40.7506 227.259 40.6807L227.629 43.3467C228.84 43.3817 230.883 43.4516 231.792 43.4166C232.698 43.3817 233.4 43.2342 233.905 42.9123C234.861 42.2409 235.208 39.5748 235.528 33.1019C235.539 32.9195 235.566 32.3839 235.566 32.3839V32.3725C235.562 32.1046 235.508 31.8562 235.412 31.6272C237.578 33.23 240.242 34.6232 243.495 35.477V32.6595C239.602 31.2936 236.665 29.0583 234.552 26.8463H243.58V23.8583L243.572 23.8544ZM225.925 20.3619H226.943C227.159 20.9711 227.672 22.2556 228.578 23.8544H224.179C224.854 22.6825 225.428 21.5067 225.922 20.3619H225.925ZM233.612 30.4205H218.999C220.217 29.3107 221.285 28.0999 222.221 26.8424H230.555C231.476 28.0417 232.594 29.2834 233.943 30.4554C233.832 30.4358 233.72 30.4205 233.608 30.4205H233.612Z" fill="#002F7B"/>
<path d="M91.1833 21.4445H77.5608V24.0407H91.1833V21.4445ZM91.6691 37.5802L88.3462 38.1467L89.5797 34.4251H86.893L85.4631 38.6394L82.9265 39.0588C82.7878 37.6617 82.5063 36.1328 81.8587 34.4214H79.0103C79.6502 35.9271 80.1127 37.9566 80.2861 39.4467C78.7672 39.6796 77.5955 39.8504 76.4854 39.9899V43.1839C80.2128 42.4969 87.4328 40.7429 91.6651 39.8464V37.5762L91.6691 37.5802ZM79.5112 19.9621H91.1833V12.0806H88.2885V17.3854H85.8215V10.9979H82.9228V17.3854H80.4558V12.0806H77.5608V17.9986C77.5608 19.0851 78.4358 19.9621 79.5112 19.9621ZM79.5112 33.4008H91.1833V27.4555C91.1833 26.3691 90.3123 25.492 89.2329 25.492H77.5608V31.4371C77.5608 32.5237 78.4358 33.4008 79.5112 33.4008ZM80.5789 27.8593H88.1535V31.018H80.5789V27.8593ZM106.228 40.7389C105.523 40.669 105.292 40.3431 105.292 39.66L105.299 14.0442C105.299 12.9576 104.424 12.0806 103.349 12.0806H95.2268V28.0687C95.2268 33.7966 94.7837 39.4506 91.1216 43.4825H94.4021C98.1296 39.1634 98.2606 34.3359 98.2606 28.0687V14.7078H101.942L101.961 40.1919C101.961 42.1011 102.497 43.1839 104.212 43.4709C105.149 43.6493 107.635 43.6146 109.347 43.5058L109.886 40.6963C108.445 40.8048 106.872 40.7662 106.232 40.7312L106.228 40.7389Z" fill="#002F7B"/>
<path d="M154.396 27.9795H145.966V16.9547H151.447V14.2771H145.966V10.9979H142.789V14.2771H132.22V10.9979H129.044V14.2771H123.558V16.9547H129.044V27.9795H120.609V30.6649H128.427C127.263 32.7953 123.874 35.2713 120.609 36.2569V39.2799C124.615 38.0419 127.159 36.4976 128.793 35.0266V37.2659H135.835V40.7972H123.863V43.4825H151.15V40.7972H139.17V37.2659H146.212V35.0266C147.851 36.4976 150.395 38.0419 154.396 39.2799V36.2569C151.135 35.2713 147.747 32.7953 146.579 30.6649H154.396V27.9795ZM132.247 16.9586H142.751V18.8407H132.247V16.9586ZM132.247 21.5261H142.751V23.4198H132.247V21.5261ZM132.247 26.0974H142.751V27.9795H132.247V26.0974ZM139.189 34.5805V31.8096H135.812V34.5805H129.263C130.971 32.9351 131.757 31.4837 132.096 30.6611H142.905C143.241 31.4837 144.023 32.9351 145.738 34.5805H139.189Z" fill="#002F7B"/>
<path d="M166.959 20.0438H178.377V17.2576H166.959V20.0438ZM177.035 22.3916H168.304V25.1779H177.035V22.3916ZM168.304 30.2616H177.035V27.4751H168.304V30.2616ZM176.715 12.2244H168.628V14.9214H176.715V12.2244ZM175.705 32.454H167.684V41.527C167.684 42.6136 168.559 43.4904 169.634 43.4904H177.652V34.4216C177.652 33.3348 176.777 32.458 175.705 32.458V32.454ZM174.653 40.7818H170.687V35.1394H174.653V40.7818ZM195.337 20.9364C196.783 19.8226 197.935 18.8796 198.876 17.9444L197.141 16.3378C196.436 17.2032 195.511 18.0414 194.235 19.1202C193.803 18.3247 193.499 17.5796 193.129 16.6483C194.74 15.422 196.02 14.3432 197.03 13.2993L195.372 11.6733C194.636 12.5737 193.745 13.4119 192.435 14.5333C192.161 13.6602 192.011 13.1247 191.853 12.3719H189.258C190.076 16.4775 191.244 19.3647 192.878 21.9609H184.606C186.071 19.7256 187.2 17.0713 187.898 14.091C187.906 14.0754 187.925 13.9901 187.933 13.928C187.96 13.668 188.017 13.1518 187.674 12.725C187.647 12.6978 187.431 12.3719 186.799 12.3719H179.741V14.8166H185.03C184.591 16.2913 184.244 17.3468 183.569 18.6041C182.763 17.7776 181.788 16.9471 180.647 16.1205L179.263 17.6999C180.508 18.674 181.514 19.648 182.32 20.6531C181.773 21.6853 180.281 23.3268 178.673 24.2116V27.0173C179.992 26.7107 182.32 24.9412 183.692 23.2647V24.6346H193.749V23.2764C195.002 24.9024 197.361 26.4197 198.787 26.9864V24.2077C197.211 23.2725 195.823 21.8367 195.333 20.9286L195.337 20.9364ZM194.671 35.869H191.702C190.862 37.6347 190.18 40.84 190.18 40.84H187.277C187.277 40.84 186.591 37.6347 185.755 35.869H182.79C183.496 37.3823 184.066 39.4352 184.336 40.84H179.128V43.4867H198.337V40.84H193.133C193.402 39.4352 193.969 37.3823 194.678 35.869H194.671ZM196.078 34.8524V28.5269C196.078 27.4441 195.21 26.5633 194.131 26.5633H181.376V32.8924C181.376 33.9753 182.247 34.8524 183.322 34.8524H196.081H196.078ZM184.132 29.2137H193.318V32.167H184.132V29.2137Z" fill="#002F7B"/>
<path d="M0 27.4981L27.3184 0H0V27.4981Z" fill="#002F7B"/>
<path d="M27.3184 55.0001L0 27.4983V55.0001H27.3184Z" fill="#002F7B"/>
<path d="M27.3184 55.0001L54.6328 27.4983V55.0001H27.3184Z" fill="#002F7B"/>
<path d="M54.6328 27.4981L27.3184 0H54.6328V27.4981Z" fill="#45B035"/>
<path d="M27.3184 0L0 27.4981H27.3184V0Z" fill="url(#paint0_linear_349_16130)"/>
<path d="M0 27.4983L27.3184 55.0001V27.4983H0Z" fill="url(#paint1_linear_349_16130)"/>
<path d="M54.6328 27.4983L27.3184 55.0001V27.4983H54.6328Z" fill="white"/>
<path d="M54.6328 27.4981L27.3184 0V27.4981H54.6328Z" fill="url(#paint2_linear_349_16130)"/>
<defs>
<linearGradient id="paint0_linear_349_16130" x1="13.7073" y1="13.7995" x2="27.755" y2="27.7531" gradientUnits="userSpaceOnUse">
<stop stop-color="#E83E0B"/>
<stop offset="0.2" stop-color="#EA5006"/>
<stop offset="0.52" stop-color="#F08300"/>
<stop offset="1" stop-color="#FFDE00"/>
</linearGradient>
<linearGradient id="paint1_linear_349_16130" x1="13.7073" y1="41.2008" x2="27.755" y2="27.2431" gradientUnits="userSpaceOnUse">
<stop stop-color="#E83E0B"/>
<stop offset="0.2" stop-color="#EA5006"/>
<stop offset="0.52" stop-color="#F08300"/>
<stop offset="1" stop-color="#FFDE00"/>
</linearGradient>
<linearGradient id="paint2_linear_349_16130" x1="41.0756" y1="13.6481" x2="27.2262" y2="27.4052" gradientUnits="userSpaceOnUse">
<stop stop-color="#003483"/>
<stop offset="0.2" stop-color="#003686"/>
<stop offset="0.52" stop-color="#0057A4"/>
<stop offset="1" stop-color="#009CE5"/>
</linearGradient>
</defs>
</svg>
